# xmcd
#
# Track frame offsets:
#	150
#	15555
#	42072
#	64297
#	91775
#	110332
#	130782
#	147055
#	157132
#	183262
#	201067
#
# Disc length: 2943 seconds
#
# Revision: 1
# Processed by: cddbd v1.5.1PL0 Copyright (c) Steve Scherf et al.
# Submitted via: CDex 1.50Beta5
#
DISCID=8b0b7d0b
DTITLE=チャクラ - さてこそ
DYEAR=2002
DGENRE=
TTITLE0=めだか
TTITLE1=ミュンミュン
TTITLE2=おちょーし者の行進曲
TTITLE3=You need me
TTITLE4=これから死んでゆくすべての生命体に捧げる詩
TTITLE5=いとほに
TTITLE6=Free
TTITLE7=III
TTITLE8=微笑む
TTITLE9=ちょっと痛いけどステキ
TTITLE10=おはよーみなさん
EXTD=
EXTT0=
EXTT1=
EXTT2=
EXTT3=
EXTT4=
EXTT5=
EXTT6=
EXTT7=
EXTT8=
EXTT9=
EXTT10=
PLAYORDER=
